<?xml version="1.0" encoding="utf-8"?>
<!-- Generator: Adobe Illustrator 24.3.0, SVG Export Plug-In . SVG Version: 6.00 Build 0)  -->
<svg version="1.1" id="Layer_1" xmlns="http://www.w3.org/2000/svg" xmlns:xlink="http://www.w3.org/1999/xlink" x="0px" y="0px"
	 viewBox="0 0 40 40" style="enable-background:new 0 0 40 40;" xml:space="preserve">
<style type="text/css">
	.st0{fill:none;stroke:#000000;stroke-width:1.3;stroke-miterlimit:10;}
</style>
<g>
	<g>
		<path d="M28.46,4.43v28.71H7.34V4.43H28.46 M29.76,3.13H6.04v31.31h23.71V3.13L29.76,3.13z"/>
	</g>
	<path class="st0" d="M29.76,5.75"/>
	<path class="st0" d="M10.64,32.76"/>
	<polyline class="st0" points="29.38,5.75 33.96,5.75 33.96,36.87 10.64,36.87 10.64,34.1 	"/>
	<g>
		<polyline class="st0" points="10.38,24.22 14.79,27.77 18.87,20.3 23.65,23.18 26.12,18.59 		"/>
		<circle cx="18.77" cy="20.15" r="1.54"/>
		<circle cx="23.62" cy="23.25" r="1.54"/>
		<circle cx="14.84" cy="27.67" r="1.54"/>
		<circle cx="26.08" cy="18.73" r="1.54"/>
		<circle cx="10.65" cy="24.18" r="1.54"/>
	</g>
	<line class="st0" x1="9.55" y1="7.27" x2="19.03" y2="7.27"/>
	<line class="st0" x1="9.55" y1="10.89" x2="15.65" y2="10.89"/>
</g>
</svg>
