<?xml version="1.0" encoding="utf-8"?>
<!-- Generator: Adobe Illustrator 24.3.0, SVG Export Plug-In . SVG Version: 6.00 Build 0)  -->
<svg version="1.1" xmlns="http://www.w3.org/2000/svg" xmlns:xlink="http://www.w3.org/1999/xlink" x="0px" y="0px"
	 viewBox="0 0 40 40" style="enable-background:new 0 0 40 40;" xml:space="preserve">
<style type="text/css">
	.st0{display:none;}
	.st1{display:inline;}
	.st2{fill:none;stroke:#000000;stroke-width:1.3;stroke-miterlimit:10;}
	.st3{fill:none;stroke:#000000;stroke-width:1.3;stroke-linecap:round;stroke-linejoin:round;stroke-miterlimit:10;}
	.st4{fill:none;stroke:#000000;stroke-width:1.3;stroke-linejoin:round;stroke-miterlimit:10;}
</style>
<g id="Layer_1" class="st0">
	<g class="st1">
		<g>
			<path d="M28.46,4.43v28.71H7.34V4.43H28.46 M29.76,3.13H6.04v31.31h23.71V3.13L29.76,3.13z"/>
		</g>
		<path class="st2" d="M29.76,5.75"/>
		<path class="st2" d="M10.64,32.76"/>
		<polyline class="st2" points="29.38,5.75 33.96,5.75 33.96,36.87 10.64,36.87 10.64,34.1 		"/>
		<g>
			<polyline class="st2" points="10.38,24.22 14.79,27.77 18.87,20.3 23.65,23.18 26.12,18.59 			"/>
			<circle cx="18.77" cy="20.15" r="1.54"/>
			<circle cx="23.62" cy="23.25" r="1.54"/>
			<circle cx="14.84" cy="27.67" r="1.54"/>
			<circle cx="26.08" cy="18.73" r="1.54"/>
			<circle cx="10.65" cy="24.18" r="1.54"/>
		</g>
		<line class="st2" x1="9.55" y1="7.27" x2="19.03" y2="7.27"/>
		<line class="st2" x1="9.55" y1="10.89" x2="15.65" y2="10.89"/>
	</g>
</g>
<g id="Layer_2" class="st0">
	<g class="st1">
		<polyline class="st3" points="2.09,8.64 2.09,34.46 37.91,34.46 37.91,8.64 		"/>
		<path class="st4" d="M20.15,8.64c0,0-6.89-3.98-15.63-2.91v25.82c0,0,12.62,0.49,15.63,2.82C20.15,34.36,20.39,8.39,20.15,8.64z"
			/>
		<path class="st4" d="M20.18,8.64c0,0,6.89-3.98,15.63-2.91v25.82c0,0-12.62,0.49-15.63,2.82C20.18,34.36,19.94,8.39,20.18,8.64z"
			/>
		<path class="st3" d="M18.33,12.15c0,0-7.74-1.6-10.74-1.55"/>
		<path class="st3" d="M17.8,15.2c0,0-7.74-1.6-10.74-1.55"/>
		<path class="st3" d="M22.28,12.15c0,0,7.74-1.6,10.74-1.55"/>
		<path class="st3" d="M22.82,15.2c0,0,7.74-1.6,10.74-1.55"/>
	</g>
</g>
<g id="Layer_3">
	<g>
		<g>
			<line class="st4" x1="5.35" y1="6.82" x2="5.35" y2="27.98"/>
			<g>
				<line class="st4" x1="3.68" y1="6.44" x2="36.32" y2="6.44"/>
				<line class="st4" x1="3.68" y1="27.69" x2="36.32" y2="27.69"/>
				<line class="st4" x1="34.65" y1="6.82" x2="34.65" y2="27.98"/>
			</g>
		</g>
		<g>
			<line class="st4" x1="16.3" y1="33.56" x2="20.07" y2="27.85"/>
			<line class="st4" x1="23.7" y1="33.56" x2="19.93" y2="27.85"/>
		</g>
		<line class="st4" x1="10.13" y1="25.87" x2="10.13" y2="22.69"/>
		<line class="st4" x1="14.79" y1="25.87" x2="14.79" y2="20.69"/>
		<line class="st4" x1="19.46" y1="25.87" x2="19.46" y2="18.69"/>
		<line class="st4" x1="24.12" y1="25.87" x2="24.12" y2="16.69"/>
		<line class="st4" x1="28.78" y1="25.87" x2="28.78" y2="14.69"/>
		<polyline class="st2" points="9.1,19.37 15.55,15.29 17.47,15.55 27.04,10.5 23.73,9.35 		"/>
	</g>
</g>
</svg>
