<?xml version="1.0" encoding="utf-8"?>
<!-- Generator: Adobe Illustrator 24.3.0, SVG Export Plug-In . SVG Version: 6.00 Build 0)  -->
<svg version="1.1" id="Layer_1" xmlns="http://www.w3.org/2000/svg" xmlns:xlink="http://www.w3.org/1999/xlink" x="0px" y="0px"
	 viewBox="0 0 50 50" style="enable-background:new 0 0 50 50;" xml:space="preserve">
<style type="text/css">
	.st0{fill:#FCFAFA;}
</style>
<g id="그룹_228_2_" transform="translate(-526.129 -210.407)">
	<g id="그룹_165_2_" transform="translate(529.257 210.657)">
		<path id="패스_83_2_" class="st0" d="M24.44,9.33c2.57,0,4.66,2.09,4.66,4.66v10.35c0,2.57-2.09,4.66-4.66,4.66h-5.13
			c-2.57,0-4.66-2.09-4.66-4.66V13.99c0-2.57,2.09-4.66,4.66-4.66H24.44 M24.44,7.8h-5.13c-3.42,0-6.19,2.77-6.19,6.19l0,0v10.35
			c0,3.42,2.77,6.19,6.19,6.19l0,0h5.13c3.42,0,6.19-2.77,6.19-6.19l0,0V13.99C30.63,10.57,27.86,7.8,24.44,7.8L24.44,7.8z"/>
	</g>
	<g id="그룹_166_2_" transform="translate(533.763 213.93)">
		<path id="패스_84_2_" class="st0" d="M15.71,22.45c-0.42,0-0.76-0.34-0.76-0.76l0,0V9.85c0-0.42,0.34-0.76,0.76-0.76
			c0.42,0,0.76,0.34,0.76,0.76v11.83C16.47,22.11,16.13,22.45,15.71,22.45C15.71,22.45,15.71,22.45,15.71,22.45z"/>
	</g>
	<g id="그룹_168_2_" transform="translate(536.282 213.93)">
		<path id="패스_86_2_" class="st0" d="M16.71,22.45c-0.42,0-0.76-0.34-0.76-0.76l0,0V9.85c0-0.42,0.34-0.76,0.76-0.76
			c0.42,0,0.76,0.34,0.76,0.76v11.83C17.48,22.11,17.13,22.45,16.71,22.45C16.71,22.45,16.71,22.45,16.71,22.45z"/>
	</g>
	<g id="그룹_168-2_2_" transform="translate(534.89 228.915)">
		<path id="패스_86-2_2_" class="st0" d="M16.24,23.35c-0.47,0-0.85-0.38-0.85-0.85l0,0l0,0v-6.53c0-0.47,0.38-0.85,0.85-0.85
			s0.85,0.38,0.85,0.85v6.53C17.1,22.96,16.71,23.35,16.24,23.35L16.24,23.35z"/>
	</g>
	<g id="그룹_168-3_2_" transform="translate(532.571 233.622)">
		<path id="패스_86-3_2_" class="st0" d="M22.67,17.88c0,0.47-0.38,0.85-0.85,0.85h-6.53c-0.47-0.02-0.84-0.42-0.82-0.89
			c0.02-0.44,0.37-0.8,0.82-0.82h6.53C22.29,17.03,22.67,17.41,22.67,17.88z"/>
	</g>
	<g id="그룹_172_2_" transform="translate(529.346 216.284)">
		<g id="그룹_169_2_" transform="translate(0)">
			<path id="패스_87_2_" class="st0" d="M15.72,11.59H13.9c-0.42,0-0.76-0.34-0.76-0.77c0-0.42,0.34-0.76,0.76-0.76h1.82
				c0.42,0,0.76,0.34,0.76,0.77C16.48,11.25,16.14,11.59,15.72,11.59z"/>
		</g>
		<g id="그룹_171_2_" transform="translate(0 2.99)">
			<path id="패스_89_2_" class="st0" d="M15.72,12.79H13.9c-0.42,0-0.76-0.34-0.76-0.77c0-0.42,0.34-0.76,0.76-0.76h1.82
				c0.42,0,0.76,0.34,0.76,0.77C16.48,12.45,16.14,12.79,15.72,12.79z"/>
		</g>
	</g>
	<g id="그룹_176_2_" transform="translate(539.345 216.284)">
		<g id="그룹_173_2_">
			<path id="패스_90_2_" class="st0" d="M19.63,11.59h-1.66c-0.42,0.02-0.78-0.31-0.79-0.74c-0.02-0.42,0.31-0.78,0.74-0.79h1.71
				c0.42,0,0.76,0.34,0.76,0.77C20.39,11.25,20.05,11.59,19.63,11.59z"/>
		</g>
		<g id="그룹_175_2_" transform="translate(0 2.99)">
			<path id="패스_92_2_" class="st0" d="M19.63,12.79h-1.66c-0.42,0.02-0.78-0.31-0.79-0.74c-0.02-0.42,0.31-0.78,0.74-0.79l0,0
				h1.71c0.42,0,0.76,0.34,0.76,0.77C20.39,12.45,20.05,12.79,19.63,12.79z"/>
		</g>
	</g>
	<g id="그룹_227_2_" transform="translate(526.379 222.347)">
		<path id="패스_162_2_" class="st0" d="M35.83,12.5v0.45c0,4.57-3.7,8.27-8.27,8.27l0,0h-5.59c-4.58-0.01-8.29-3.72-8.29-8.29
			V12.5h-1.71v0.42c0,5.52,4.48,10,10,10c0,0,0,0,0,0h5.59c5.51,0,9.98-4.47,9.98-9.98c0,0,0,0,0,0V12.5L35.83,12.5z"/>
	</g>
</g>
</svg>
